<svg width="32" height="71" viewBox="0 0 32 71" fill="none" xmlns="http://www.w3.org/2000/svg">
<path d="M28.1591 2.80879H3.68546L1.43233 0.702198H30.5677L28.3145 2.80879H28.1591ZM16.7381 30.7407C16.2719 30.7407 15.9612 31.2868 15.9612 31.989C15.9612 32.6132 16.2719 33.2374 16.7381 33.2374C17.1266 33.2374 17.515 32.6132 17.515 31.989C17.515 31.2868 17.1266 30.7407 16.7381 30.7407ZM16.7381 40.5714C16.2719 40.5714 15.9612 41.1176 15.9612 41.8198C15.9612 42.522 16.2719 43.0681 16.7381 43.0681C17.1266 43.0681 17.515 42.522 17.515 41.8198C17.515 41.1176 17.1266 40.5714 16.7381 40.5714ZM16.0388 38.7769H15.495C15.495 38.7769 13.3972 38.5429 13.1642 38.5429C13.0088 38.4648 13.0088 37.6846 13.1642 37.6846C13.3972 37.6066 15.495 37.8407 15.495 37.8407H16.0388C16.1165 37.4506 16.3496 37.0604 16.7381 37.0604C17.1266 37.0604 17.515 37.6846 17.515 38.3088C17.515 39.011 17.1266 39.5571 16.7381 39.5571C16.3496 39.5571 16.1165 39.2451 16.0388 38.7769ZM19.9236 31.2088C19.6905 31.2088 19.5351 31.3648 19.5351 31.5989C19.5351 31.833 19.6905 31.989 19.9236 31.989C20.1566 31.911 20.312 31.7549 20.312 31.5989C20.312 31.3648 20.1566 31.2088 19.9236 31.2088ZM19.9236 42.2879C19.6905 42.2879 19.5351 42.444 19.5351 42.678C19.5351 42.9121 19.6905 43.0681 19.9236 43.0681C20.1566 43.0681 20.312 42.8341 20.312 42.678C20.312 42.444 20.1566 42.2879 19.9236 42.2879ZM19.9236 40.4154C19.6905 40.4154 19.5351 40.6495 19.5351 40.8055C19.5351 41.0396 19.6905 41.1956 19.9236 41.1956C20.1566 41.1956 20.312 41.0396 20.312 40.8055C20.312 40.5714 20.1566 40.4154 19.9236 40.4154ZM19.9236 38.5429C19.6905 38.5429 19.5351 38.7769 19.5351 38.933C19.5351 39.167 19.6905 39.3231 19.9236 39.3231C20.1566 39.3231 20.312 39.167 20.312 38.933C20.312 38.6989 20.1566 38.5429 19.9236 38.5429ZM19.9236 36.7484C19.6905 36.7484 19.5351 36.9044 19.5351 37.1385C19.5351 37.2945 19.6905 37.5286 19.9236 37.4506C20.1566 37.4506 20.312 37.2945 20.312 37.0604C20.312 36.9044 20.1566 36.7484 19.9236 36.7484ZM18.9135 6.16374L20.8559 5.53956V69.4396L18.9135 70.0637V6.16374ZM20.5451 5.14945L18.6805 5.77363L6.32707 3.51099H10.2895L20.5451 5.14945ZM4.22932 3.58901L18.5251 6.16374V70.0637L4.22932 64.1341V61.4033V3.58901ZM3.99624 64.8363L18.6805 71L21.6328 69.9857V64.8363H28.4699H31.5V0H31.1115H0.500002V64.8363H3.53008H3.99624ZM1.19925 0.858242L3.53008 3.04286V64.1341H1.19925V0.858242ZM28.4699 64.1341V3.04286L30.8008 0.858242V64.1341H28.4699Z" fill="#60554D"/>
</svg>
