<svg width="32" height="65" viewBox="0 0 32 65" fill="none" xmlns="http://www.w3.org/2000/svg">
<path d="M3.86741 2.79141H28.3307L30.5096 0.697853H1.39137L3.66933 2.79141H3.86741ZM27.7364 3.58896L13.4744 6.18098V59.7163L27.7364 64.3021V61.6104V3.58896ZM28.0335 65H10.4042H3.47125H0.5V0H0.896166H31.5V65H28.4297H28.0335ZM30.8067 0.897239L28.4297 3.09049V64.3021H30.8067V0.897239ZM3.47125 64.3021V3.09049L1.19329 0.897239V64.3021H3.47125ZM15.6534 34.8926L16.0495 34.9923C16.0495 34.9923 17.6342 35.1917 17.8323 35.2914C18.0304 35.2914 17.9313 34.4939 17.8323 34.3942C17.7332 34.2945 16.0495 34.0951 16.0495 34.0951L15.6534 33.9954C15.5543 33.5966 15.3562 33.1979 15.0591 33.0982C14.762 32.9985 14.4649 33.4969 14.4649 34.1948C14.4649 34.8926 14.762 35.4908 15.0591 35.5905C15.3562 35.6902 15.5543 35.3911 15.6534 34.8926ZM15.0591 36.5874C15.3562 36.6871 15.6534 37.2853 15.6534 37.9831C15.6534 38.681 15.3562 39.1794 15.0591 39.0798C14.762 38.9801 14.4649 38.3819 14.4649 37.684C14.4649 36.9862 14.762 36.4877 15.0591 36.5874ZM15.0591 26.7178C15.3562 26.8175 15.6534 27.4156 15.6534 28.1135C15.6534 28.8113 15.3562 29.3098 15.0591 29.2101C14.762 29.1104 14.4649 28.5123 14.4649 27.8144C14.4649 27.1166 14.762 26.6181 15.0591 26.7178Z" fill="#60554D"/>
</svg>
