<svg width="31" height="71" viewBox="0 0 31 71" fill="none" xmlns="http://www.w3.org/2000/svg">
<path d="M3.34085 2.80879H27.8145L30.0677 0.702198H0.932331L3.18546 2.80879H3.34085ZM14.7619 30.7407C15.2281 30.7407 15.5388 31.2868 15.5388 31.989C15.5388 32.6132 15.2281 33.2374 14.7619 33.2374C14.3734 33.2374 13.985 32.6132 13.985 31.989C13.985 31.2868 14.3734 30.7407 14.7619 30.7407ZM14.7619 40.5714C15.2281 40.5714 15.5388 41.1176 15.5388 41.8198C15.5388 42.522 15.2281 43.0681 14.7619 43.0681C14.3734 43.0681 13.985 42.522 13.985 41.8198C13.985 41.1176 14.3734 40.5714 14.7619 40.5714ZM15.4612 38.7769H16.005C16.005 38.7769 18.1028 38.5429 18.3358 38.5429C18.4912 38.4648 18.4912 37.6846 18.3358 37.6846C18.1028 37.6066 16.005 37.8407 16.005 37.8407H15.4612C15.3835 37.4506 15.1504 37.0604 14.7619 37.0604C14.3734 37.0604 13.985 37.6846 13.985 38.3088C13.985 39.011 14.3734 39.5571 14.7619 39.5571C15.1504 39.5571 15.3835 39.2451 15.4612 38.7769ZM11.5764 31.2088C11.8095 31.2088 11.9649 31.3648 11.9649 31.5989C11.9649 31.833 11.8095 31.989 11.5764 31.989C11.3434 31.911 11.188 31.7549 11.188 31.5989C11.188 31.3648 11.3434 31.2088 11.5764 31.2088ZM11.5764 42.2879C11.8095 42.2879 11.9649 42.444 11.9649 42.678C11.9649 42.9121 11.8095 43.0681 11.5764 43.0681C11.3434 43.0681 11.188 42.8341 11.188 42.678C11.188 42.444 11.3434 42.2879 11.5764 42.2879ZM11.5764 40.4154C11.8095 40.4154 11.9649 40.6495 11.9649 40.8055C11.9649 41.0396 11.8095 41.1956 11.5764 41.1956C11.3434 41.1956 11.188 41.0396 11.188 40.8055C11.188 40.5714 11.3434 40.4154 11.5764 40.4154ZM11.5764 38.5429C11.8095 38.5429 11.9649 38.7769 11.9649 38.933C11.9649 39.167 11.8095 39.3231 11.5764 39.3231C11.3434 39.3231 11.188 39.167 11.188 38.933C11.188 38.6989 11.3434 38.5429 11.5764 38.5429ZM11.5764 36.7484C11.8095 36.7484 11.9649 36.9044 11.9649 37.1385C11.9649 37.2945 11.8095 37.5286 11.5764 37.4506C11.3434 37.4506 11.188 37.2945 11.188 37.0604C11.188 36.9044 11.3434 36.7484 11.5764 36.7484ZM12.5865 6.16374L10.6441 5.53956V69.4396L12.5865 70.0637V6.16374ZM10.9549 5.14945L12.8195 5.77363L25.1729 3.51099H21.2105L10.9549 5.14945ZM27.2707 3.58901L12.9749 6.16374V70.0637L27.2707 64.1341V61.4033V3.58901ZM27.5038 64.8363L12.8195 71L9.86717 69.9857V64.8363H3.03008H0V0H0.388471H31V64.8363H27.9699H27.5038ZM30.3008 0.858242L27.9699 3.04286V64.1341H30.3008V0.858242ZM3.03008 64.1341V3.04286L0.699248 0.858242V64.1341H3.03008Z" fill="#60554D"/>
</svg>
