<svg width="28" height="71" viewBox="0 0 28 71" fill="none" xmlns="http://www.w3.org/2000/svg">
<path d="M3.01754 2.80879H25.1228L27.1579 0.702198H0.842105L2.87719 2.80879H3.01754ZM13.3333 30.7407C13.7544 30.7407 14.0351 31.2868 14.0351 31.989C14.0351 32.6132 13.7544 33.2374 13.3333 33.2374C12.9825 33.2374 12.6316 32.6132 12.6316 31.989C12.6316 31.2868 12.9825 30.7407 13.3333 30.7407ZM13.3333 40.5714C13.7544 40.5714 14.0351 41.1176 14.0351 41.8198C14.0351 42.522 13.7544 43.0681 13.3333 43.0681C12.9825 43.0681 12.6316 42.522 12.6316 41.8198C12.6316 41.1176 12.9825 40.5714 13.3333 40.5714ZM13.9649 38.7769H14.4561C14.4561 38.7769 16.3509 38.5429 16.5614 38.5429C16.7018 38.4648 16.7018 37.6846 16.5614 37.6846C16.3509 37.6066 14.4561 37.8407 14.4561 37.8407H13.9649C13.8947 37.4506 13.6842 37.0604 13.3333 37.0604C12.9825 37.0604 12.6316 37.6846 12.6316 38.3088C12.6316 39.011 12.9825 39.5571 13.3333 39.5571C13.6842 39.5571 13.8947 39.2451 13.9649 38.7769ZM10.4561 31.2088C10.6667 31.2088 10.807 31.3648 10.807 31.5989C10.807 31.833 10.6667 31.989 10.4561 31.989C10.2456 31.911 10.1053 31.7549 10.1053 31.5989C10.1053 31.3648 10.2456 31.2088 10.4561 31.2088ZM10.4561 42.2879C10.6667 42.2879 10.807 42.444 10.807 42.678C10.807 42.9121 10.6667 43.0681 10.4561 43.0681C10.2456 43.0681 10.1053 42.8341 10.1053 42.678C10.1053 42.444 10.2456 42.2879 10.4561 42.2879ZM10.4561 40.4154C10.6667 40.4154 10.807 40.6495 10.807 40.8055C10.807 41.0396 10.6667 41.1956 10.4561 41.1956C10.2456 41.1956 10.1053 41.0396 10.1053 40.8055C10.1053 40.5714 10.2456 40.4154 10.4561 40.4154ZM10.4561 38.5429C10.6667 38.5429 10.807 38.7769 10.807 38.933C10.807 39.167 10.6667 39.3231 10.4561 39.3231C10.2456 39.3231 10.1053 39.167 10.1053 38.933C10.1053 38.6989 10.2456 38.5429 10.4561 38.5429ZM10.4561 36.7484C10.6667 36.7484 10.807 36.9044 10.807 37.1385C10.807 37.2945 10.6667 37.5286 10.4561 37.4506C10.2456 37.4506 10.1053 37.2945 10.1053 37.0604C10.1053 36.9044 10.2456 36.7484 10.4561 36.7484ZM11.3684 6.16374L9.61404 5.53956V69.4396L11.3684 70.0637V6.16374ZM9.89474 5.14945L11.5789 5.77363L22.7368 3.51099H19.1579L9.89474 5.14945ZM24.6316 3.58901L11.7193 6.16374V70.0637L24.6316 64.1341V61.4033V3.58901ZM24.8421 64.8363L11.5789 71L8.91228 69.9857V64.8363H2.73684H0V0H0.350877H28V64.8363H25.2632H24.8421ZM27.3684 0.858242L25.2632 3.04286V64.1341H27.3684V0.858242ZM2.73684 64.1341V3.04286L0.631579 0.858242V64.1341H2.73684Z" fill="#60554D"/>
</svg>
