<svg width="20" height="23" viewBox="0 0 20 23" xmlns="http://www.w3.org/2000/svg">
<path fill-rule="evenodd" clip-rule="evenodd" d="M13.4214 0.783914C13.3309 0.604046 13.2028 0.445348 13.0456 0.318368C12.8884 0.191388 12.7058 0.0990341 12.5099 0.0474432C12.314 -0.00414769 12.1092 -0.0137935 11.9092 0.0191465C11.7092 0.0520864 11.5186 0.126858 11.35 0.238492C10.8571 0.564328 10.4729 1.029 10.1757 1.48517C9.87 1.95268 9.6 2.49526 9.36143 3.06619C8.88429 4.2052 8.48429 5.57088 8.16143 6.93939C7.77098 8.61177 7.47859 10.3052 7.28572 12.0111C6.70448 11.6395 6.23746 11.1166 5.93572 10.4995C5.46715 9.53617 5.36715 8.32632 5.36715 6.73964C5.36709 6.45949 5.28327 6.18565 5.12629 5.95273C4.96932 5.71982 4.74623 5.53828 4.48523 5.43108C4.22423 5.32388 3.93704 5.29583 3.65996 5.35047C3.38289 5.4051 3.12837 5.53998 2.92858 5.73805C1.99881 6.65809 1.26147 7.75121 0.758903 8.95463C0.256333 10.1581 -0.00156873 11.4481 7.17875e-06 12.7506C0.000125837 14.3814 0.405787 15.987 1.18106 17.4251C1.95634 18.8633 3.07729 20.0897 4.44465 20.9956C5.812 21.9016 7.38355 22.4591 9.02009 22.6189C10.6566 22.7787 12.3077 22.5358 13.8269 21.9118C15.3462 21.2877 16.6868 20.3017 17.7301 19.0411C18.7733 17.7805 19.487 16.2842 19.8078 14.6848C20.1287 13.0853 20.0468 11.4321 19.5695 9.87155C19.0922 8.31099 18.2342 6.89123 17.0714 5.73805C16.2257 4.90079 15.6714 4.34262 15.1457 3.65978C14.6271 2.98544 14.1114 2.15384 13.4214 0.783914ZM13.0286 18.5873C12.4292 19.181 11.6659 19.5851 10.8351 19.7488C10.0042 19.9125 9.14309 19.8283 8.36044 19.507C7.5778 19.1856 6.90873 18.6414 6.43776 17.9432C5.96679 17.245 5.71504 16.424 5.71429 15.584C5.71429 15.584 6.97001 16.2923 9.28572 16.2923C9.28572 14.8756 10 10.6256 11.0714 9.91725C11.7857 11.3339 12.1943 11.749 13.03 12.5792C13.4286 12.9733 13.7448 13.4416 13.9603 13.9573C14.1758 14.473 14.2864 15.0258 14.2857 15.584C14.2864 16.1422 14.1758 16.695 13.9603 17.2107C13.7448 17.7263 13.4286 18.1947 13.03 18.5888L13.0286 18.5873Z" fill="currentColor"/>
</svg>
