<svg width="39" height="40" viewBox="0 0 39 40" xmlns="http://www.w3.org/2000/svg">
<path d="M28.8271 21.2446L26.8006 20.0746C27.2134 19.3578 27.2894 18.4859 27.012 17.6503C26.7346 16.8147 26.1264 16.0836 25.3208 15.6176L26.3608 13.8163C27.7032 14.5932 28.7167 15.8115 29.179 17.2041C29.6413 18.5967 29.5148 20.0498 28.8271 21.2446Z" fill="currentColor"/>
<path d="M32.4247 23.2639L30.5634 22.1893C31.5822 20.4202 31.8738 18.3286 31.3742 16.3734C30.8747 14.4181 29.6248 12.7589 27.8988 11.7597L28.9988 9.85442C31.218 11.1391 32.8251 13.2723 33.4673 15.7863C34.1096 18.3002 33.7346 20.9894 32.4247 23.2639ZM21.7634 37.4313L21.6052 37.34C3.93924 25.7053 10.4617 8.41157 12.8817 3.38172C13.2613 2.59329 13.9319 1.98339 14.746 1.68618C15.5601 1.38896 16.451 1.42876 17.2228 1.79684C17.3 1.83375 17.3758 1.87369 17.4502 1.91668L22.3548 4.74834C22.7278 4.96319 23.0261 5.28774 23.2112 5.67994C23.3963 6.07214 23.4596 6.51392 23.3928 6.94806L22.7504 11.3276C22.6867 11.7526 22.5013 12.1517 22.2173 12.4755C21.9333 12.7993 21.5632 13.0335 21.1529 13.1489L17.9881 14.0525C17.2563 16.0323 17.1395 18.1796 17.6537 20.2033C18.1679 22.227 19.2882 24.0292 20.8625 25.3654L24.0646 24.4832C24.4771 24.3736 24.9101 24.3886 25.3093 24.5265C25.7085 24.6644 26.0564 24.919 26.3096 25.2586L28.9877 28.7227C29.2447 29.0653 29.3935 29.4796 29.4152 29.9129C29.4369 30.3461 29.3304 30.7787 29.1094 31.1555L26.2054 36.1854C25.7678 36.9434 25.0539 37.5004 24.2209 37.7341C23.3879 37.9678 22.5039 37.8589 21.7634 37.4313ZM16.3502 3.82194C16.2282 3.751 16.0931 3.70535 15.9526 3.68761C15.8121 3.66987 15.669 3.68037 15.5314 3.71852C15.3938 3.75667 15.2644 3.82172 15.1507 3.90996C15.0369 3.99819 14.941 4.10789 14.8684 4.23278C14.853 4.25945 14.8387 4.28634 14.8256 4.31346C11.9977 10.2002 7.04311 25.1221 22.8076 35.4938C23.0452 35.6512 23.3367 35.7053 23.6181 35.6443C23.8995 35.5834 24.1477 35.4123 24.3081 35.1688L24.3441 35.1108L27.2481 30.0809L24.57 26.6167L20.3315 27.7896L19.9178 27.4746C12.4205 21.7615 16.1074 12.8396 16.1569 12.7539L16.365 12.2644L20.5866 11.0564L21.2641 6.65897L16.3502 3.82194Z" fill="currentColor"/>
</svg>
