<svg width="20" height="21" viewBox="0 0 20 21" xmlns="http://www.w3.org/2000/svg">
<path fill-rule="evenodd" clip-rule="evenodd" d="M0.2075 3.85591C3.82642 3.81047 7.30601 2.44034 10 0C12.6938 2.4408 16.1734 3.81139 19.7925 3.85717C19.93 4.67758 20 5.52323 20 6.38276C20 12.9776 15.825 18.5879 10 20.6667C4.175 18.5866 0 12.9763 0 6.3815C0 5.5207 0.0712499 4.67758 0.2075 3.85591ZM14.6337 8.53601C14.8614 8.29796 14.9874 7.97914 14.9846 7.6482C14.9817 7.31727 14.8503 7.0007 14.6185 6.76669C14.3868 6.53267 14.0732 6.39993 13.7455 6.39706C13.4178 6.39418 13.102 6.5214 12.8663 6.75131L8.75 10.9076L7.13375 9.27564C6.898 9.04573 6.58224 8.91851 6.2545 8.92138C5.92675 8.92426 5.61324 9.057 5.38148 9.29101C5.14972 9.52503 5.01826 9.8416 5.01541 10.1725C5.01256 10.5035 5.13855 10.8223 5.36625 11.0603L7.86625 13.5847C8.10066 13.8213 8.41854 13.9542 8.75 13.9542C9.08146 13.9542 9.39934 13.8213 9.63375 13.5847L14.6337 8.53601Z" fill="currentColor"/>
</svg>
