<svg width="20" height="20" viewBox="0 0 20 20" xmlns="http://www.w3.org/2000/svg">
<path d="M0 0V20H20V0H0ZM18.0338 3.52425L15.3039 16.6557C15.2381 16.9673 14.8782 17.1077 14.6193 16.919L10.8931 14.2155C10.6649 14.0531 10.3577 14.0619 10.1426 14.2374L8.07549 15.9184C7.8341 16.1159 7.47421 16.0061 7.38205 15.7077L5.94689 11.095L2.2427 9.71253C1.86526 9.57209 1.86526 9.04104 2.23831 8.8962L17.4501 3.02831C17.7705 2.90542 18.104 3.18631 18.0338 3.52425Z" fill="currentColor"/>
<path d="M13.3905 7.11434L8.9358 11.253C8.7778 11.3979 8.67685 11.5954 8.65052 11.806L8.49691 12.9296C8.47497 13.0788 8.2643 13.0964 8.2248 12.9471L7.64108 10.8975C7.57525 10.6649 7.67181 10.4148 7.87808 10.2875L13.2764 6.96512C13.3729 6.90368 13.4739 7.03534 13.3905 7.11434Z" fill="currentColor"/>
</svg>
