<svg width="20" height="20" viewBox="0 0 20 20" xmlns="http://www.w3.org/2000/svg">
<path d="M13.5659 11.7665L13.4956 12.1045C13.4122 12.4863 13.1884 12.8242 12.8593 13.0349C12.4423 13.2982 11.9069 13.4299 11.2222 13.2368C9.10239 12.6355 7.89985 11.2311 7.25908 10.3533C6.61392 9.47553 6.36814 8.59776 6.52614 7.88238C6.63586 7.3996 6.98697 7.03094 7.20641 6.84222C7.31613 6.75005 7.45219 6.70177 7.59702 6.71055L8.04907 6.73689C8.13685 6.74127 8.21585 6.79833 8.25096 6.87733L8.90929 8.4222C8.9444 8.50559 8.93123 8.60215 8.86979 8.66798L8.29485 9.3307C8.24657 9.38336 8.24218 9.46236 8.2729 9.52381C9.02778 10.9809 10.4103 11.5602 10.8228 11.7051C10.893 11.7314 10.972 11.7051 11.0159 11.648L11.6172 10.8668C11.683 10.779 11.8015 10.7527 11.9025 10.7966L13.4342 11.5032C13.5351 11.5515 13.5878 11.6612 13.5659 11.7665Z" fill="currentColor"/>
<path d="M0 0V20H20V0H0ZM10.011 16.9717C8.81282 16.9717 7.6366 16.6645 6.59644 16.0808L3.00636 17.0024L3.98508 13.5221C3.35308 12.4512 3.02392 11.2355 3.02392 9.98464C3.02392 6.13123 6.15756 2.99759 10.011 2.99759C13.8644 2.99759 16.998 6.13123 16.998 9.98464C16.998 13.8381 13.86 16.9717 10.011 16.9717Z" fill="currentColor"/>
</svg>
