<svg width="56" height="73" viewBox="0 0 56 73" fill="none" xmlns="http://www.w3.org/2000/svg">
<path d="M51.4241 41.3321L28.2085 72.1687L4.99282 41.3321C2.23879 37.674 1.25238 32.5527 1.25238 27.5176C1.25238 12.5951 13.3221 0.5 28.2085 0.5C43.0948 0.5 55.1646 12.5951 55.1645 27.5176C55.1645 29.7781 54.8562 32.4067 54.2294 34.8905C53.6012 37.3802 52.6623 39.6874 51.4241 41.3321ZM40.2626 27.5175C40.2626 20.848 34.8659 15.4375 28.2085 15.4375C21.551 15.4375 16.1544 20.848 16.1544 27.5176C16.1544 34.1872 21.551 39.5976 28.2085 39.5976C34.8659 39.5976 40.2626 34.1872 40.2626 27.5175Z" fill="#FFD705" stroke="black"/>
</svg>
