<svg width="80" height="80" viewBox="0 0 80 80" fill="none" xmlns="http://www.w3.org/2000/svg">
<path d="M53.3333 51.2973V36C53.3333 35.4733 53.0227 34.996 52.5413 34.7813L40.5413 29.448C40.196 29.2947 39.8027 29.2947 39.4587 29.448L27.4587 34.7813C26.9773 34.996 26.6667 35.4733 26.6667 36V51.2973C26.6667 54.332 34.6453 58.7987 39.4013 61.192C39.5893 61.2853 39.7947 61.3333 40 61.3333C40.2053 61.3333 40.4107 61.2853 40.5987 61.192C45.3547 58.7987 53.3333 54.3333 53.3333 51.2973ZM29.3333 51.2973V36.8667L40 32.1253L50.6667 36.8667V51.252C50.3013 52.4253 45.5053 55.6773 40 58.504C34.4587 55.6587 29.6373 52.3867 29.3333 51.2973Z" fill="#7D6E64"/>
<path d="M38.4133 48.9308L34.0453 46.1708L32.6213 48.4255L37.9546 51.7948C38.1746 51.9335 38.4213 52.0001 38.6653 52.0001C39.0386 52.0001 39.4079 51.8428 39.6693 51.5455L49.0026 40.8788L46.9959 39.1228L38.4133 48.9308Z" fill="#7D6E64"/>
<path d="M78.6667 0H1.33333C0.597333 0 0 0.597333 0 1.33333V68C0 68.736 0.597333 69.3333 1.33333 69.3333H18.4227L16.132 74.088C15.916 74.5347 15.9667 75.0653 16.264 75.464C16.5627 75.8613 17.056 76.06 17.5453 75.9827L25.0093 74.7773L28.5267 79.4667C28.78 79.804 29.176 80 29.5933 80C29.6493 80 29.7053 79.9973 29.7627 79.9893C30.2387 79.9293 30.6453 79.616 30.8267 79.172L35.58 67.56C37.0107 67.844 38.4867 68 40 68C41.5133 68 42.9893 67.844 44.42 67.56L49.1733 79.172C49.3547 79.616 49.7613 79.928 50.2373 79.9893C50.2947 79.9973 50.3507 80 50.4067 80C50.8227 80 51.22 79.8053 51.4733 79.4667L54.9907 74.7773L62.4547 75.9827C62.9507 76.0613 63.4387 75.8613 63.736 75.464C64.0333 75.0653 64.084 74.5347 63.868 74.088L61.5773 69.3333H78.6667C79.4027 69.3333 80 68.736 80 68V1.33333C80 0.597333 79.4027 0 78.6667 0ZM29.2493 75.9867L26.66 72.5333C26.4067 72.1947 26.0093 72 25.5933 72C25.5227 72 25.452 72.0053 25.3813 72.0173L19.644 72.944L24.8413 62.1573C24.9053 62.2147 24.976 62.2627 25.0413 62.3187C25.492 62.716 25.96 63.0933 26.4413 63.4547C26.5747 63.5547 26.7053 63.656 26.84 63.7533C27.368 64.132 27.9133 64.4827 28.4733 64.816C28.5653 64.8707 28.656 64.9307 28.7493 64.984C30.0827 65.7507 31.4947 66.3893 32.98 66.8747L29.2493 75.9867ZM35.08 64.696C33.764 64.3627 32.496 63.8933 31.288 63.308C31.1973 63.264 31.104 63.2213 31.0133 63.176C30.6627 63 30.3187 62.812 29.98 62.6147C29.8493 62.5387 29.7213 62.4573 29.592 62.3787C28.5747 61.7573 27.6147 61.044 26.7187 60.2453C26.5707 60.1133 26.4227 59.9827 26.28 59.8467C26.0267 59.6067 25.7787 59.3627 25.5373 59.1093C25.4387 59.0067 25.3453 58.8987 25.2493 58.7933C24.9107 58.4227 24.5827 58.0427 24.2747 57.6507C24.1853 57.536 24.1 57.4173 24.0133 57.3013C23.7253 56.9187 23.4467 56.528 23.1893 56.128C23.0947 55.9813 23.0067 55.8293 22.916 55.6787C22.684 55.2973 22.4587 54.9107 22.252 54.516C22.156 54.3307 22.0707 54.14 21.98 53.952C21.8 53.5773 21.6227 53.2027 21.4667 52.8173C21.376 52.5933 21.2987 52.3613 21.216 52.1333C21.084 51.772 20.952 51.4107 20.8413 51.0413C20.76 50.768 20.6973 50.488 20.6267 50.2107C20.5413 49.8747 20.4507 49.54 20.3827 49.1987C20.3133 48.844 20.268 48.4813 20.2173 48.12C20.1787 47.8453 20.1267 47.572 20.1 47.2947C20.036 46.648 20 45.9947 20 45.3333C20 34.3053 28.972 25.3333 40 25.3333C51.028 25.3333 60 34.3053 60 45.3333C60 45.9947 59.964 46.648 59.9 47.2933C59.8733 47.5707 59.8213 47.8427 59.7827 48.1187C59.732 48.48 59.688 48.8427 59.6173 49.1973C59.5493 49.5387 59.4587 49.8733 59.3733 50.2093C59.304 50.4867 59.24 50.7667 59.1587 51.04C59.048 51.4093 58.916 51.7707 58.784 52.132C58.7013 52.36 58.624 52.592 58.5333 52.816C58.3773 53.2 58.2 53.576 58.02 53.9507C57.9293 54.1387 57.844 54.3293 57.748 54.5147C57.5427 54.9093 57.3173 55.296 57.084 55.6773C56.9933 55.8267 56.9053 55.9787 56.8107 56.1267C56.552 56.5267 56.2747 56.9173 55.9853 57.3C55.8987 57.416 55.8133 57.5347 55.724 57.6493C55.416 58.0413 55.088 58.42 54.7493 58.792C54.6533 58.8973 54.56 59.0053 54.4613 59.108C54.22 59.3613 53.972 59.6067 53.7187 59.8453C53.5747 59.9813 53.4267 60.1133 53.2787 60.244C52.3827 61.0427 51.4227 61.756 50.4053 62.3773C50.276 62.456 50.148 62.5373 50.0173 62.6133C49.6787 62.8107 49.3333 62.9973 48.984 63.1747C48.8933 63.22 48.8013 63.2627 48.7107 63.3067C47.5013 63.892 46.2333 64.3613 44.9173 64.6947C43.3427 65.0973 41.7 65.3333 40 65.3333C38.3 65.3333 36.6573 65.0973 35.08 64.696ZM54.6187 72.0173C54.1293 71.9413 53.6373 72.1373 53.34 72.5333L50.7507 75.9867L47.02 66.8747C48.5053 66.3893 49.9173 65.7507 51.2507 64.984C51.344 64.9307 51.4333 64.8707 51.5267 64.816C52.0867 64.4827 52.632 64.132 53.1587 63.7533C53.2933 63.656 53.424 63.5547 53.5573 63.4547C54.0387 63.0933 54.5067 62.716 54.9573 62.3187C55.0213 62.2613 55.0933 62.2147 55.1573 62.1573L60.3547 72.944L54.6187 72.0173ZM77.3333 66.6667H60.292L57.1427 60.1307C57.1667 60.104 57.1853 60.0747 57.2093 60.0467C57.5293 59.6733 57.828 59.284 58.124 58.8907C58.2533 58.7187 58.3867 58.548 58.512 58.372C58.768 58.0107 59.0067 57.6373 59.2413 57.26C59.3827 57.0333 59.524 56.808 59.656 56.5773C59.8587 56.224 60.048 55.8653 60.232 55.5013C60.3693 55.2293 60.5013 54.9573 60.628 54.68C60.7853 54.3333 60.9347 53.984 61.0747 53.6293C61.1987 53.3173 61.312 53.0013 61.4213 52.6827C61.5373 52.3453 61.6507 52.008 61.7507 51.664C61.856 51.3053 61.944 50.9413 62.0307 50.5773C62.1067 50.2587 62.1867 49.9427 62.248 49.62C62.332 49.1867 62.3907 48.748 62.4493 48.3093C62.484 48.0413 62.532 47.7787 62.5573 47.508C62.6253 46.788 62.6667 46.0627 62.6667 45.3333C62.6667 32.8347 52.4987 22.6667 40 22.6667C27.5013 22.6667 17.3333 32.8347 17.3333 45.3333C17.3333 46.0627 17.3747 46.788 17.444 47.508C17.4707 47.7787 17.5173 48.0413 17.552 48.3093C17.6107 48.748 17.6693 49.1867 17.7533 49.62C17.816 49.944 17.896 50.26 17.9707 50.5773C18.0573 50.9413 18.1453 51.3053 18.2507 51.664C18.3507 52.008 18.464 52.3453 18.58 52.6827C18.6893 53 18.804 53.316 18.9267 53.6293C19.0667 53.984 19.216 54.3347 19.3733 54.68C19.5 54.956 19.632 55.2293 19.7693 55.5013C19.9533 55.8653 20.1427 56.2253 20.3453 56.5773C20.4773 56.808 20.6187 57.0333 20.76 57.26C20.9947 57.6373 21.2333 58.0107 21.4893 58.372C21.6133 58.548 21.748 58.7173 21.8773 58.8907C22.172 59.284 22.472 59.6733 22.792 60.0467C22.816 60.0733 22.8347 60.104 22.8587 60.1307L19.708 66.6667H2.66667V2.66667H77.3333V66.6667Z" fill="#7D6E64"/>
<path d="M52 16H28V18.6667H52V16Z" fill="#7D6E64"/>
<path d="M65.3333 9.33325H14.6667V11.9999H65.3333V9.33325Z" fill="#7D6E64"/>
</svg>
