<svg width="0" height="0" class="hidden">
  <symbol xmlns="http://www.w3.org/2000/svg" viewBox="0 0 16 13" id="ic_arrow">
    <path d="M6.44444 11.8889L1 6.44444L6.44444 11.8889ZM1 6.44444L6.44444 1L1 6.44444ZM1 6.44444H15H1Z" fill="currentColor"></path>
    <path d="M1 6.44444H15M6.44444 11.8889L1 6.44444L6.44444 11.8889ZM1 6.44444L6.44444 1L1 6.44444Z" stroke="currentColor" stroke-width="2" stroke-linecap="round" stroke-linejoin="round" fill="none"></path>
  </symbol>
  <symbol xmlns="http://www.w3.org/2000/svg" viewBox="0 0 20 23" id="ic_fire">
    <path fill-rule="evenodd" clip-rule="evenodd" d="M13.4214 0.783914C13.3309 0.604046 13.2028 0.445348 13.0456 0.318368C12.8884 0.191388 12.7058 0.0990341 12.5099 0.0474432C12.314 -0.00414769 12.1092 -0.0137935 11.9092 0.0191465C11.7092 0.0520864 11.5186 0.126858 11.35 0.238492C10.8571 0.564328 10.4729 1.029 10.1757 1.48517C9.87 1.95268 9.6 2.49526 9.36143 3.06619C8.88429 4.2052 8.48429 5.57088 8.16143 6.93939C7.77098 8.61177 7.47859 10.3052 7.28572 12.0111C6.70448 11.6395 6.23746 11.1166 5.93572 10.4995C5.46715 9.53617 5.36715 8.32632 5.36715 6.73964C5.36709 6.45949 5.28327 6.18565 5.12629 5.95273C4.96932 5.71982 4.74623 5.53828 4.48523 5.43108C4.22423 5.32388 3.93704 5.29583 3.65996 5.35047C3.38289 5.4051 3.12837 5.53998 2.92858 5.73805C1.99881 6.65809 1.26147 7.75121 0.758903 8.95463C0.256333 10.1581 -0.00156873 11.4481 7.17875e-06 12.7506C0.000125837 14.3814 0.405787 15.987 1.18106 17.4251C1.95634 18.8633 3.07729 20.0897 4.44465 20.9956C5.812 21.9016 7.38355 22.4591 9.02009 22.6189C10.6566 22.7787 12.3077 22.5358 13.8269 21.9118C15.3462 21.2877 16.6868 20.3017 17.7301 19.0411C18.7733 17.7805 19.487 16.2842 19.8078 14.6848C20.1287 13.0853 20.0468 11.4321 19.5695 9.87155C19.0922 8.31099 18.2342 6.89123 17.0714 5.73805C16.2257 4.90079 15.6714 4.34262 15.1457 3.65978C14.6271 2.98544 14.1114 2.15384 13.4214 0.783914ZM13.0286 18.5873C12.4292 19.181 11.6659 19.5851 10.8351 19.7488C10.0042 19.9125 9.14309 19.8283 8.36044 19.507C7.5778 19.1856 6.90873 18.6414 6.43776 17.9432C5.96679 17.245 5.71504 16.424 5.71429 15.584C5.71429 15.584 6.97001 16.2923 9.28572 16.2923C9.28572 14.8756 10 10.6256 11.0714 9.91725C11.7857 11.3339 12.1943 11.749 13.03 12.5792C13.4286 12.9733 13.7448 13.4416 13.9603 13.9573C14.1758 14.473 14.2864 15.0258 14.2857 15.584C14.2864 16.1422 14.1758 16.695 13.9603 17.2107C13.7448 17.7263 13.4286 18.1947 13.03 18.5888L13.0286 18.5873Z" fill="currentColor"></path>
  </symbol>
  <symbol xmlns="http://www.w3.org/2000/svg" viewBox="0 0 32 29" id="ic_message">
    <path d="M9.33333 14.3333H9.35H9.33333ZM16 14.3333H16.0167H16ZM22.6667 14.3333H22.6833H22.6667ZM31 14.3333C31 21.6967 24.2833 27.6667 16 27.6667C13.5477 27.675 11.1247 27.1346 8.90833 26.085L1 27.6667L3.325 21.4667C1.85333 19.4033 1 16.9567 1 14.3333C1 6.97 7.71667 1 16 1C24.2833 1 31 6.97 31 14.3333Z" stroke="currentColor" stroke-width="2" stroke-linecap="round" stroke-linejoin="round" fill="none"></path>
  </symbol>
  <symbol xmlns="http://www.w3.org/2000/svg" viewBox="0 0 39 40" id="ic_phone">
    <path d="M28.8271 21.2446L26.8006 20.0746C27.2134 19.3578 27.2894 18.4859 27.012 17.6503C26.7346 16.8147 26.1264 16.0836 25.3208 15.6176L26.3608 13.8163C27.7032 14.5932 28.7167 15.8115 29.179 17.2041C29.6413 18.5967 29.5148 20.0498 28.8271 21.2446Z" fill="currentColor"></path>
    <path d="M32.4247 23.2639L30.5634 22.1893C31.5822 20.4202 31.8738 18.3286 31.3742 16.3734C30.8747 14.4181 29.6248 12.7589 27.8988 11.7597L28.9988 9.85442C31.218 11.1391 32.8251 13.2723 33.4673 15.7863C34.1096 18.3002 33.7346 20.9894 32.4247 23.2639ZM21.7634 37.4313L21.6052 37.34C3.93924 25.7053 10.4617 8.41157 12.8817 3.38172C13.2613 2.59329 13.9319 1.98339 14.746 1.68618C15.5601 1.38896 16.451 1.42876 17.2228 1.79684C17.3 1.83375 17.3758 1.87369 17.4502 1.91668L22.3548 4.74834C22.7278 4.96319 23.0261 5.28774 23.2112 5.67994C23.3963 6.07214 23.4596 6.51392 23.3928 6.94806L22.7504 11.3276C22.6867 11.7526 22.5013 12.1517 22.2173 12.4755C21.9333 12.7993 21.5632 13.0335 21.1529 13.1489L17.9881 14.0525C17.2563 16.0323 17.1395 18.1796 17.6537 20.2033C18.1679 22.227 19.2882 24.0292 20.8625 25.3654L24.0646 24.4832C24.4771 24.3736 24.9101 24.3886 25.3093 24.5265C25.7085 24.6644 26.0564 24.919 26.3096 25.2586L28.9877 28.7227C29.2447 29.0653 29.3935 29.4796 29.4152 29.9129C29.4369 30.3461 29.3304 30.7787 29.1094 31.1555L26.2054 36.1854C25.7678 36.9434 25.0539 37.5004 24.2209 37.7341C23.3879 37.9678 22.5039 37.8589 21.7634 37.4313ZM16.3502 3.82194C16.2282 3.751 16.0931 3.70535 15.9526 3.68761C15.8121 3.66987 15.669 3.68037 15.5314 3.71852C15.3938 3.75667 15.2644 3.82172 15.1507 3.90996C15.0369 3.99819 14.941 4.10789 14.8684 4.23278C14.853 4.25945 14.8387 4.28634 14.8256 4.31346C11.9977 10.2002 7.04311 25.1221 22.8076 35.4938C23.0452 35.6512 23.3367 35.7053 23.6181 35.6443C23.8995 35.5834 24.1477 35.4123 24.3081 35.1688L24.3441 35.1108L27.2481 30.0809L24.57 26.6167L20.3315 27.7896L19.9178 27.4746C12.4205 21.7615 16.1074 12.8396 16.1569 12.7539L16.365 12.2644L20.5866 11.0564L21.2641 6.65897L16.3502 3.82194Z" fill="currentColor"></path>
  </symbol>
  <symbol xmlns="http://www.w3.org/2000/svg" viewBox="0 0 20 21" id="ic_security">
    <path fill-rule="evenodd" clip-rule="evenodd" d="M0.2075 3.85591C3.82642 3.81047 7.30601 2.44034 10 0C12.6938 2.4408 16.1734 3.81139 19.7925 3.85717C19.93 4.67758 20 5.52323 20 6.38276C20 12.9776 15.825 18.5879 10 20.6667C4.175 18.5866 0 12.9763 0 6.3815C0 5.5207 0.0712499 4.67758 0.2075 3.85591ZM14.6337 8.53601C14.8614 8.29796 14.9874 7.97914 14.9846 7.6482C14.9817 7.31727 14.8503 7.0007 14.6185 6.76669C14.3868 6.53267 14.0732 6.39993 13.7455 6.39706C13.4178 6.39418 13.102 6.5214 12.8663 6.75131L8.75 10.9076L7.13375 9.27564C6.898 9.04573 6.58224 8.91851 6.2545 8.92138C5.92675 8.92426 5.61324 9.057 5.38148 9.29101C5.14972 9.52503 5.01826 9.8416 5.01541 10.1725C5.01256 10.5035 5.13855 10.8223 5.36625 11.0603L7.86625 13.5847C8.10066 13.8213 8.41854 13.9542 8.75 13.9542C9.08146 13.9542 9.39934 13.8213 9.63375 13.5847L14.6337 8.53601Z" fill="currentColor"></path>
  </symbol>
  <symbol xmlns="http://www.w3.org/2000/svg" viewBox="0 0 20 20" id="ic_telegram">
    <path d="M0 0V20H20V0H0ZM18.0338 3.52425L15.3039 16.6557C15.2381 16.9673 14.8782 17.1077 14.6193 16.919L10.8931 14.2155C10.6649 14.0531 10.3577 14.0619 10.1426 14.2374L8.07549 15.9184C7.8341 16.1159 7.47421 16.0061 7.38205 15.7077L5.94689 11.095L2.2427 9.71253C1.86526 9.57209 1.86526 9.04104 2.23831 8.8962L17.4501 3.02831C17.7705 2.90542 18.104 3.18631 18.0338 3.52425Z" fill="currentColor"></path>
    <path d="M13.3905 7.11434L8.9358 11.253C8.7778 11.3979 8.67685 11.5954 8.65052 11.806L8.49691 12.9296C8.47497 13.0788 8.2643 13.0964 8.2248 12.9471L7.64108 10.8975C7.57525 10.6649 7.67181 10.4148 7.87808 10.2875L13.2764 6.96512C13.3729 6.90368 13.4739 7.03534 13.3905 7.11434Z" fill="currentColor"></path>
  </symbol>
  <symbol xmlns="http://www.w3.org/2000/svg" viewBox="0 0 20 20" id="ic_whatsapp">
    <path d="M13.5659 11.7665L13.4956 12.1045C13.4122 12.4863 13.1884 12.8242 12.8593 13.0349C12.4423 13.2982 11.9069 13.4299 11.2222 13.2368C9.10239 12.6355 7.89985 11.2311 7.25908 10.3533C6.61392 9.47553 6.36814 8.59776 6.52614 7.88238C6.63586 7.3996 6.98697 7.03094 7.20641 6.84222C7.31613 6.75005 7.45219 6.70177 7.59702 6.71055L8.04907 6.73689C8.13685 6.74127 8.21585 6.79833 8.25096 6.87733L8.90929 8.4222C8.9444 8.50559 8.93123 8.60215 8.86979 8.66798L8.29485 9.3307C8.24657 9.38336 8.24218 9.46236 8.2729 9.52381C9.02778 10.9809 10.4103 11.5602 10.8228 11.7051C10.893 11.7314 10.972 11.7051 11.0159 11.648L11.6172 10.8668C11.683 10.779 11.8015 10.7527 11.9025 10.7966L13.4342 11.5032C13.5351 11.5515 13.5878 11.6612 13.5659 11.7665Z" fill="currentColor"></path>
    <path d="M0 0V20H20V0H0ZM10.011 16.9717C8.81282 16.9717 7.6366 16.6645 6.59644 16.0808L3.00636 17.0024L3.98508 13.5221C3.35308 12.4512 3.02392 11.2355 3.02392 9.98464C3.02392 6.13123 6.15756 2.99759 10.011 2.99759C13.8644 2.99759 16.998 6.13123 16.998 9.98464C16.998 13.8381 13.86 16.9717 10.011 16.9717Z" fill="currentColor"></path>
  </symbol>
</svg>